<?xml version="1.0" standalone="no"?><!DOCTYPE svg PUBLIC "-//W3C//DTD SVG 1.1//EN" "http://www.w3.org/Graphics/SVG/1.1/DTD/svg11.dtd"><svg t="1597633402603" class="icon" viewBox="0 0 1026 1024" version="1.1" xmlns="http://www.w3.org/2000/svg" p-id="8477" xmlns:xlink="http://www.w3.org/1999/xlink" width="200.390625" height="200"><defs><style type="text/css"></style></defs><path d="M1001.78944 866.461538h-78.769231c15.753846 0 31.507692-15.753846 31.507693-31.507692V425.353846c-7.876923-15.753846-23.630769-31.507692-39.384616-31.507692h78.769231c31.507692 0 47.261538-47.261538 15.753846-63.015385L552.804825 15.753846c-23.630769-15.753846-55.138462-15.753846-78.769231 0l-456.861539 315.076923c-31.507692 15.753846-15.753846 63.015385 15.753847 63.015385h78.76923c-15.753846 0-31.507692 15.753846-31.507692 31.507692v409.6c0 15.753846 15.753846 31.507692 31.507692 31.507692h-78.76923c-15.753846 0-31.507692 15.753846-31.507693 31.507693v94.523077c0 15.753846 15.753846 31.507692 23.630769 31.507692h968.861539c15.753846 0 23.630769-15.753846 23.630769-31.507692v-94.523077c7.876923-15.753846-7.876923-31.507692-15.753846-31.507693z m-535.630769 0H206.220209c15.753846 0 31.507692-15.753846 31.507693-31.507692V425.353846c0-15.753846-15.753846-31.507692-31.507693-31.507692h259.938462c-15.753846 0-31.507692 15.753846-31.507693 31.507692v409.6c0 15.753846 15.753846 31.507692 31.507693 31.507692z m354.461538 0H560.681748c15.753846 0 31.507692-15.753846 31.507692-31.507692V425.353846c0-15.753846-15.753846-31.507692-31.507692-31.507692h259.938461c-15.753846 0-31.507692 15.753846-31.507692 31.507692v409.6c0 15.753846 15.753846 31.507692 31.507692 31.507692z" fill="#E56590" p-id="8478"></path></svg>