<?xml version="1.0" standalone="no"?><!DOCTYPE svg PUBLIC "-//W3C//DTD SVG 1.1//EN" "http://www.w3.org/Graphics/SVG/1.1/DTD/svg11.dtd"><svg t="1597579829848" class="icon" viewBox="0 0 1024 1024" version="1.1" xmlns="http://www.w3.org/2000/svg" p-id="5104" xmlns:xlink="http://www.w3.org/1999/xlink" width="200" height="200"><defs><style type="text/css"></style></defs><path d="M70.136424 953.6091a21.503664 21.503664 0 0 1-6.143904-15.247762c0.183997-10.751832 3.143951-106.470336 53.655162-156.997547 23.303636-23.311636 72.102873-48.559241 143.885752-84.48668 76.606803-38.279402 119.086139-61.111045 138.661833-79.622756l43.167326-40.815362-37.503414-46.07928c-59.071077-72.574866-92.966547-152.717614-92.966548-219.852565 0-51.783191 0-110.470274 24.503617-159.013515C366.72379 93.43854 425.450872 63.999 512.00152 63.999c86.526648 0 145.28573 29.43954 174.589272 87.486633 24.503617 48.559241 24.503617 107.246324 24.503617 159.029515 0 67.126951-33.89547 147.261699-92.990547 219.852565l-37.503414 46.09528 43.199325 40.831362c11.687817 11.047827 31.831503 23.751629 62.383026 40.31137l47.287261-47.279261c-28.919548-15.183763-56.167122-30.511523-65.710974-39.543382 67.926939-83.470696 107.326323-177.733223 107.326323-260.259934 0-55.999125 0-125.702036-31.34351-187.853065C715.478341 66.702958 652.351327 0 512.00152 0 371.635713 0 308.5087 66.702958 280.269141 122.654084c-31.38351 62.159029-31.38351 131.83794-31.38351 187.853064 0 82.54271 39.399384 176.797238 107.334323 260.259934-16.223747 15.34376-83.110701 48.783238-123.302073 68.854924-79.718754 39.871377-130.293964 66.230965-160.525492 96.486492C5.425435 803.075452 0.361515 915.481696 0.01752 937.353354a85.430665 85.430665 0 0 0 24.519617 61.183044 85.438665 85.438665 0 0 0 60.79105 25.439602h362.426337v-63.999H85.328187a21.359666 21.359666 0 0 1-15.191763-6.3679z m899.649943-195.556945l-45.975281 45.967282c26.943579 42.527336 35.663443 101.622412 36.167434 134.309902a21.383666 21.383666 0 0 1-6.095904 15.279761 21.199669 21.199669 0 0 1-15.223762 6.3759H767.813523l-64.007 63.999h234.844331c22.879643 0 44.767301-9.183857 60.79905-25.439602a85.542663 85.542663 0 0 0 24.535616-61.215044c-0.311995-19.623693-4.847924-112.062249-54.199153-179.277199z m35.319448-91.558569a63.967001 63.967001 0 0 0 0-90.502586l-45.255293-45.247293A63.799003 63.799003 0 0 0 914.59523 511.992a63.767004 63.767004 0 0 0-45.255293 18.751707l-274.819706 274.747707c-12.487805 12.503805-50.727207 60.839049-50.743207 77.214794L511.769524 1023.984l141.269792-31.9995s64.766988-38.247402 77.262793-50.751207l274.803706-274.739707z m-328.842861 273.707723l-82.918705-82.902704c8.503867-11.655818 17.967719-23.375635 23.799628-29.183544l206.932767-206.868768 90.510586 90.502586-206.844768 206.796769c-3.623943 3.439946-16.167747 11.911814-31.479508 21.655661z" fill="" p-id="5105"></path></svg>