<?xml version="1.0" standalone="no"?><!DOCTYPE svg PUBLIC "-//W3C//DTD SVG 1.1//EN" "http://www.w3.org/Graphics/SVG/1.1/DTD/svg11.dtd"><svg t="1597633232954" class="icon" viewBox="0 0 1024 1024" version="1.1" xmlns="http://www.w3.org/2000/svg" p-id="1783" xmlns:xlink="http://www.w3.org/1999/xlink" width="200" height="200"><defs><style type="text/css"></style></defs><path d="M976.081259 864.956651a485.672164 485.672164 0 0 0-375.443629-339.494366 270.21466 270.21466 0 1 0-177.36557 0A485.672164 485.672164 0 0 0 48.066506 864.956651 121.89419 121.89419 0 0 0 66.874399 973.042515 126.179533 126.179533 0 0 0 169.722622 1023.990477h684.464447a126.179533 126.179533 0 0 0 101.65785-50.947962 121.89419 121.89419 0 0 0 20.23634-108.085864z m-397.82264-64.042065l-71.422377 71.422377-71.422378-71.422377 16.427147-147.606246a114.275803 114.275803 0 0 0 107.84779 0z m-19.284042-203.3157h-3.333044v2.380746a71.422377 71.422377 0 0 1-95.229837 0v-2.380746h-3.333044A71.422377 71.422377 0 0 1 440.651505 571.648755a419.963577 419.963577 0 0 1 134.988293 0 71.422377 71.422377 0 0 1-16.665221 26.188205zM289.474141 270.484399a222.599742 222.599742 0 1 1 222.599742 222.599742 222.837817 222.837817 0 0 1-222.599742-222.599742z m628.516918 673.989165A79.040764 79.040764 0 0 1 854.187069 976.375559H169.722622a79.040764 79.040764 0 0 1-63.565916-31.901995 74.755421 74.755421 0 0 1-12.379879-66.184736A437.581097 437.581097 0 0 1 394.22696 581.171739a119.037295 119.037295 0 0 0 15.950998 34.282741l-22.617086 202.839551 119.037295 119.037295 119.037295-119.037295-22.617086-202.839551a119.037295 119.037295 0 0 0 16.665221-36.425412 437.819172 437.819172 0 0 1 310.687341 299.25976 74.755421 74.755421 0 0 1-12.379879 66.184736z" p-id="1784" fill="#1afa29"></path></svg>