<?xml version="1.0" standalone="no"?><!DOCTYPE svg PUBLIC "-//W3C//DTD SVG 1.1//EN" "http://www.w3.org/Graphics/SVG/1.1/DTD/svg11.dtd"><svg t="1597633443547" class="icon" viewBox="0 0 1024 1024" version="1.1" xmlns="http://www.w3.org/2000/svg" p-id="10526" xmlns:xlink="http://www.w3.org/1999/xlink" width="200" height="200"><defs><style type="text/css"></style></defs><path d="M512 1024c282.775082 0 512-229.224918 512-512S794.775082 0 512 0 0 229.224918 0 512s229.224918 512 512 512z m0-16.786885C238.499672 1007.213115 16.786885 785.500328 16.786885 512S238.499672 16.786885 512 16.786885s495.213115 221.712787 495.213115 495.213115-221.712787 495.213115-495.213115 495.213115z" fill="#d4237a" p-id="10527"></path><path d="M424.540328 243.409836h173.265836l-43.318557 85.890098H467.858885zM428.502033 562.494951l165.417967 119.270819 25.541246-30.384262-5.682361-19.707803-169.908459-122.510689zM574.724197 496.15318l-41.891672-145.374426h-43.310164l-20.035148 69.489312zM423.382033 580.272262L402.885246 651.381508l108.283803 128.839344 71.512131-85.084327zM464.367213 438.05377l-15.368393 53.331935 156.96577 113.185574-23.426098-81.315672z" fill="#d4237a" p-id="10528"></path></svg>