<?xml version="1.0" standalone="no"?><!DOCTYPE svg PUBLIC "-//W3C//DTD SVG 1.1//EN" "http://www.w3.org/Graphics/SVG/1.1/DTD/svg11.dtd"><svg t="1597633865437" class="icon" viewBox="0 0 1194 1024" version="1.1" xmlns="http://www.w3.org/2000/svg" p-id="18669" xmlns:xlink="http://www.w3.org/1999/xlink" width="233.203125" height="200"><defs><style type="text/css"></style></defs><path d="M1108.821333 469.504a42.24 42.24 0 0 1-25.856-8.789333c-4.181333-3.157333-101.973333-79.616-101.973333-204.458667 0-124.757333 97.792-201.216 101.973333-204.458667a42.666667 42.666667 0 1 1 51.882667 67.754667c-0.426667 0.341333-68.522667 54.698667-68.522667 136.704 0 82.005333 68.096 136.362667 68.778667 136.96a42.752 42.752 0 0 1-26.282667 76.288zM85.333333 981.333333a42.581333 42.581333 0 0 1-26.112-76.373333c1.450667-1.109333 68.778667-55.296 68.778667-136.874667 0-81.92-67.925333-136.192-68.608-136.704a42.666667 42.666667 0 0 1 51.882667-67.754666c4.181333 3.242667 101.973333 79.616 101.973333 204.458666 0 124.842667-97.792 201.216-101.973333 204.458667A42.496 42.496 0 0 1 85.333333 981.333333z" fill="#d4237a" p-id="18670"></path><path d="M1108.906667 469.504H256A213.504 213.504 0 0 1 42.666667 256.256C42.666667 138.666667 138.325333 43.008 256 43.008h852.906667a42.666667 42.666667 0 0 1 0 85.333333H256c-70.570667 0-128 57.429333-128 128 0 70.485333 57.429333 127.914667 128 127.914667h852.992a42.666667 42.666667 0 0 1 0 85.333333zM938.325333 981.333333H85.333333a42.666667 42.666667 0 1 1 0-85.333333h852.992c70.570667 0 128-57.344 128-127.914667 0-70.570667-57.429333-128-128-128H85.333333a42.666667 42.666667 0 1 1 0-85.248h852.992c117.589333 0 213.333333 95.658667 213.333334 213.333334a213.504 213.504 0 0 1-213.333334 213.162666z" fill="#d4237a" p-id="18671"></path><path d="M458.496 183.808h-106.666667v277.248a42.666667 42.666667 0 0 0 42.666667 42.666667h21.333333a42.666667 42.666667 0 0 0 42.666667-42.666667v-277.333333z" fill="#d4237a" p-id="18672"></path></svg>