<?xml version="1.0" standalone="no"?><!DOCTYPE svg PUBLIC "-//W3C//DTD SVG 1.1//EN" "http://www.w3.org/Graphics/SVG/1.1/DTD/svg11.dtd"><svg t="1597633285425" class="icon" viewBox="0 0 1024 1024" version="1.1" xmlns="http://www.w3.org/2000/svg" p-id="3191" xmlns:xlink="http://www.w3.org/1999/xlink" width="200" height="200"><defs><style type="text/css"></style></defs><path d="M702.979953 677.074891c1.023656 0.639785 2.047313 0.799731 3.198925 1.439517a428.816012 428.816012 0 0 1 43.329451 36.147862 36.099878 36.099878 0 0 0 50.159158-0.159946 33.988587 33.988587 0 0 0-0.207931-48.78362 469.778257 469.778257 0 0 0-176.516729-107.803801 299.099568 299.099568 0 0 0 149.437822-257.19364 307.736668 307.736668 0 0 0-615.297395 0 299.579407 299.579407 0 0 0 152.172904 258.953049A457.526371 457.526371 0 0 0 0 988.490323a34.324474 34.324474 0 0 0 3.198926 13.915328A35.348131 35.348131 0 0 0 35.891948 1023.998401a34.884287 34.884287 0 0 0 35.188185-34.388453c0-213.848194 178.100197-387.869761 397.210624-388.189654l7.101615 0.319893c9.068955 0.159946 18.217883 0.479839 27.078908 1.27957 6.70175 0.479839 13.451483 1.439517 20.073259 2.239248 4.158604 0.479839 8.253229 1.119624 12.411833 1.75941 8.605111 1.599463 16.922318 2.879033 24.983611 4.958335l3.950673 0.959677a394.795435 394.795435 0 0 1 139.153275 64.138464z m-238.319977-144.911342a231.506265 231.506265 0 1 1 236.720514-231.602232 234.641212 234.641212 0 0 1-236.720514 231.602232z m451.320455 371.555239a49.135501 49.135501 0 0 0-33.764663 13.595435 45.824613 45.824613 0 0 0 0 66.057819 48.75163 48.75163 0 0 0 67.54532 0 45.824613 45.824613 0 0 0 0-66.057819 49.055528 49.055528 0 0 0-33.780657-13.595435z m99.166702-240.559225a38.515067 38.515067 0 0 0-52.350422-6.557798c-76.422339 55.66131-277.8587 202.492007-313.878606 229.203038a475.872211 475.872211 0 0 0-88.178391 99.806487l6.70175 11.196241s43.457408-1.27957 120.919397-47.344103c61.675291-36.787647 247.484899-177.700332 320.708312-233.84148a36.787647 36.787647 0 0 0 6.141938-52.622331z m0 0" fill="#1afa29" p-id="3192"></path></svg>