<?xml version="1.0" standalone="no"?><!DOCTYPE svg PUBLIC "-//W3C//DTD SVG 1.1//EN" "http://www.w3.org/Graphics/SVG/1.1/DTD/svg11.dtd"><svg t="1597580415127" class="icon" viewBox="0 0 1024 1024" version="1.1" xmlns="http://www.w3.org/2000/svg" p-id="3874" xmlns:xlink="http://www.w3.org/1999/xlink" width="200" height="200"><defs><style type="text/css"></style></defs><path d="M456.8 685.6l31.2 156c4 20-11.2 38.4-31.2 38.4h-35.2c-12.8 0-24-8-29.6-19.2L308.8 668" fill="#ABE6ED" p-id="3875"></path><path d="M345.6 712.8l-14.4-32 109.6 9.6 12.8 62.4-108-40z" fill="#88D2DA" p-id="3876"></path><path d="M756 163.2l-96 57.6c-18.4 11.2-38.4 18.4-59.2 20.8l-304 35.2c-42.4 10.4-76.8 40.8-92.8 80.8l-4 9.6c-1.6 3.2-2.4 7.2-4 11.2-1.6 4-4 7.2-8 9.6l-15.2 8c-12.8 5.6-20.8 19.2-20.8 34.4v75.2c0 15.2 8 28 21.6 35.2l14.4 7.2c4 2.4 6.4 5.6 8 9.6 1.6 4.8 3.2 9.6 4.8 13.6l3.2 8.8c16 40 50.4 70.4 92.8 80.8l304 35.2c20.8 3.2 40.8 10.4 59.2 20.8l96 57.6c16 9.6 36-1.6 36-20.8V184c0-18.4-20-30.4-36-20.8z" fill="#FFC33B" p-id="3877"></path><path d="M672 587.2c-25.6-6.4-68-11.2-94.4-11.2H200c20 44 54.4 74.4 96.8 84.8l304 35.2c20.8 3.2 40.8 10.4 59.2 20.8l96 57.6c16 9.6 36-1.6 36-20.8V664c0-26.4-20.8-52.8-46.4-59.2L672 587.2z" fill="#F1BB40" p-id="3878"></path></svg>