<?xml version="1.0" standalone="no"?><!DOCTYPE svg PUBLIC "-//W3C//DTD SVG 1.1//EN" "http://www.w3.org/Graphics/SVG/1.1/DTD/svg11.dtd"><svg t="1597633926757" class="icon" viewBox="0 0 1024 1024" version="1.1" xmlns="http://www.w3.org/2000/svg" p-id="19628" xmlns:xlink="http://www.w3.org/1999/xlink" width="200" height="200"><defs><style type="text/css"></style></defs><path d="M687.4 343.9c30.4 38.3 48.6 86.7 48.6 139.4 0 69.7-31.9 132-81.8 173.1 78.1-21.5 152-61.3 222.1-120-61-88.4-124-152.2-188.9-192.5zM369.8 656.4C319.9 615.3 288 553 288 483.3c0-52.7 18.2-101.1 48.6-139.4-64.9 40.3-127.9 104.1-188.9 192.5 70.2 58.7 144 98.5 222.1 120zM512 739.3c-164.9 0-314.3-64-448-192 133.7-213.3 283.1-320 448-320s314.3 106.7 448 320c-133.7 128-283.1 192-448 192z m0-96c88.4 0 160-71.6 160-160s-71.6-160-160-160-160 71.6-160 160 71.6 160 160 160z" p-id="19629" fill="#d4237a"></path></svg>