<?xml version="1.0" standalone="no"?><!DOCTYPE svg PUBLIC "-//W3C//DTD SVG 1.1//EN" "http://www.w3.org/Graphics/SVG/1.1/DTD/svg11.dtd"><svg t="1597581532327" class="icon" viewBox="0 0 1024 1024" version="1.1" xmlns="http://www.w3.org/2000/svg" p-id="9135" xmlns:xlink="http://www.w3.org/1999/xlink" width="200" height="200"><defs><style type="text/css"></style></defs><path d="M512 512m-512 0a512 512 0 1 0 1024 0 512 512 0 1 0-1024 0Z" fill="#FF8500" p-id="9136"></path><path d="M224 809.6c-16 0-25.6-12.8-25.6-25.6s12.8-25.6 25.6-25.6h12.8V252.8c0-51.2 41.6-89.6 89.6-89.6h208c51.2 0 89.6 41.6 89.6 89.6v48l112 57.6c32 16 48 48 48 80v316.8h12.8c16 0 25.6 12.8 25.6 25.6s-12.8 25.6-25.6 25.6L224 809.6z m403.2-54.4H736v-316.8c0-12.8-6.4-25.6-19.2-35.2l-86.4-44.8-3.2 396.8zM326.4 214.4c-19.2 0-38.4 16-38.4 38.4v505.6h284.8V252.8c0-22.4-16-38.4-38.4-38.4h-208z" fill="#FFFFFF" p-id="9137"></path></svg>