<?xml version="1.0" standalone="no"?><!DOCTYPE svg PUBLIC "-//W3C//DTD SVG 1.1//EN" "http://www.w3.org/Graphics/SVG/1.1/DTD/svg11.dtd"><svg t="1597582383048" class="icon" viewBox="0 0 1024 1024" version="1.1" xmlns="http://www.w3.org/2000/svg" p-id="11758" xmlns:xlink="http://www.w3.org/1999/xlink" width="200" height="200"><defs><style type="text/css"></style></defs><path d="M1004.539564 8.201953a45.873594 45.873594 0 0 0-47.204748-3.071893L24.65706 487.621973a45.771198 45.771198 0 0 0 0.358387 81.353953l226.040089 114.120806a45.771198 45.771198 0 0 0 41.265756-81.71234l-146.170884-73.674222 655.593054-339.239326c-89.904053 109.000985-222.200223 268.585799-292.444165 349.632562-106.492273 122.670907-120.827771 221.483448-120.827771 301.864635v138.235162a45.72 45.72 0 0 0 91.491198 0v-138.235162c0-62.154625 7.577335-137.313594 98.351758-241.962731 82.685106-95.279865 249.540066-297.307994 334.785082-400.830771l-85.398611 674.382796-202.8473-102.294019a45.771198 45.771198 0 0 0-41.163359 81.661142l260.598879 131.476998a45.72 45.72 0 0 0 65.99449-35.019574l113.404031-896.071038a45.617603 45.617603 0 0 0-19.14813-43.108891z" p-id="11759" fill="#1afa29"></path></svg>