<?xml version="1.0" standalone="no"?><!DOCTYPE svg PUBLIC "-//W3C//DTD SVG 1.1//EN" "http://www.w3.org/Graphics/SVG/1.1/DTD/svg11.dtd"><svg t="1597633535117" class="icon" viewBox="0 0 1024 1024" version="1.1" xmlns="http://www.w3.org/2000/svg" p-id="11327" xmlns:xlink="http://www.w3.org/1999/xlink" width="200" height="200"><defs><style type="text/css"></style></defs><path d="M182.857143 164.571429c-10.971429 0-18.285714 7.314286-18.285714 18.285714v548.571428c0 10.971429 7.314286 18.285714 18.285714 18.285715h658.285714c10.971429 0 18.285714-7.314286 18.285714-18.285715V182.857143c0-10.971429-7.314286-18.285714-18.285714-18.285714H182.857143z m0-54.857143h658.285714c40.228571 0 73.142857 32.914286 73.142857 73.142857v548.571428c0 40.228571-32.914286 73.142857-73.142857 73.142858H182.857143c-40.228571 0-73.142857-32.914286-73.142857-73.142858V182.857143c0-40.228571 32.914286-73.142857 73.142857-73.142857zM137.142857 859.428571h749.714286c14.628571 0 27.428571 12.8 27.428571 27.428572s-12.8 27.428571-27.428571 27.428571h-749.714286c-14.628571 0-27.428571-12.8-27.428571-27.428571S122.514286 859.428571 137.142857 859.428571z" fill="#d81e06" p-id="11328"></path><path d="M332.8 526.628571c-5.485714 7.314286-12.8 12.8-21.942857 12.8h-54.857143c-14.628571 0-27.428571-12.8-27.428571-27.428571s12.8-27.428571 27.428571-27.428571h40.228571l65.828572-96.914286c12.8-18.285714 38.4-16.457143 47.542857 3.657143l62.171429 137.142857 87.771428-263.314286c7.314286-23.771429 42.057143-25.6 51.2-1.828571l84.114286 219.428571h73.142857c14.628571 0 27.428571 12.8 27.428571 27.428572s-12.8 27.428571-27.428571 27.428571h-91.428571c-10.971429 0-21.942857-7.314286-25.6-18.285714l-64-166.4-85.942858 256c-7.314286 23.771429-40.228571 25.6-51.2 1.828571l-71.314285-155.428571-45.714286 71.314285z" fill="#d81e06" p-id="11329"></path></svg>