<?xml version="1.0" standalone="no"?><!DOCTYPE svg PUBLIC "-//W3C//DTD SVG 1.1//EN" "http://www.w3.org/Graphics/SVG/1.1/DTD/svg11.dtd"><svg t="1597586763454" class="icon" viewBox="0 0 1026 1024" version="1.1" xmlns="http://www.w3.org/2000/svg" p-id="20771" xmlns:xlink="http://www.w3.org/1999/xlink" width="200.390625" height="200"><defs><style type="text/css"></style></defs><path d="M510.523099 1023.998086A510.523099 510.523099 0 0 1 149.519453 152.47134 510.523099 510.523099 0 1 1 871.505474 874.457361 507.183427 507.183427 0 0 1 510.523099 1023.998086z m179.938121-304.18668l17.825765 17.847036a18.71918 18.71918 0 0 0 26.483386-26.355755l-12.933252-12.933252a74.578916 74.578916 0 1 0-56.455346 26.121766 73.855675 73.855675 0 0 0 25.079447-4.61598zM326.734783 283.739592a45.989623 45.989623 0 0 0-45.947078 45.947079v367.576631a45.989623 45.989623 0 0 0 45.947078 45.947079H572.211307a137.75615 137.75615 0 1 1 168.047187-217.397753v-196.125957a45.989623 45.989623 0 0 0-45.947079-45.947079z m137.841237 321.629552h-91.894158a22.973539 22.973539 0 0 1 0-45.947079h91.894158a22.973539 22.973539 0 0 1 0 45.947079zM510.523099 513.474986h-137.841237a22.973539 22.973539 0 1 1 0-45.947079H510.523099A22.973539 22.973539 0 1 1 510.523099 513.474986z m137.841237-91.894158H372.681862a22.973539 22.973539 0 1 1 0-45.947078h275.682474a22.973539 22.973539 0 1 1 0 45.947078z" fill="#FF7F5B" p-id="20772"></path></svg>