<?xml version="1.0" standalone="no"?><!DOCTYPE svg PUBLIC "-//W3C//DTD SVG 1.1//EN" "http://www.w3.org/Graphics/SVG/1.1/DTD/svg11.dtd"><svg t="1597633321611" class="icon" viewBox="0 0 1024 1024" version="1.1" xmlns="http://www.w3.org/2000/svg" p-id="4662" xmlns:xlink="http://www.w3.org/1999/xlink" width="200" height="200"><defs><style type="text/css"></style></defs><path d="M310.784 568.832c66.048 12.8 131.584 28.672 196.608 46.08a157.184 157.184 0 0 0 65.536-12.8 3061.76 3061.76 0 0 1 135.68-31.232 24.064 24.064 0 0 0 20.48-19.456 23.04 23.04 0 0 0-7.68-28.672 347.136 347.136 0 0 0-92.16-51.2 232.96 232.96 0 0 0 106.496-186.368 54.784 54.784 0 0 0 0-7.168A225.792 225.792 0 0 0 512 56.32a224.768 224.768 0 0 0-220.672 222.72 216.576 216.576 0 0 0 102.4 186.88 348.16 348.16 0 0 0-97.792 54.272 29.184 29.184 0 0 0 14.848 48.64z" fill="#FD9D02" p-id="4663"></path><path d="M841.728 732.16a18.944 18.944 0 0 0 0-4.096 18.944 18.944 0 0 0 0-4.096 80.384 80.384 0 0 0-51.2-75.776 200.704 200.704 0 0 0 0-51.2c-3.072-14.336-18.944-16.384-31.232-15.872a753.152 753.152 0 0 0-144.896 28.16l-102.4 25.6a1404.928 1404.928 0 0 0-242.176-51.2c-11.776 0-30.72 0-33.792 14.848a222.72 222.72 0 0 0-3.584 51.2c-69.632 23.04-65.536 151.04 3.072 161.28v80.896c0 16.384 24.576 25.088 32.256 8.704a31.232 31.232 0 0 0 0-9.216 60.928 60.928 0 0 1 30.208 0 526.336 526.336 0 0 1 99.84 30.208c27.648 10.752 54.272 23.04 81.408 34.816a99.328 99.328 0 0 0 30.208 10.752 79.36 79.36 0 0 0 29.696-9.216c28.16-11.776 56.32-24.576 84.48-35.84a603.648 603.648 0 0 1 92.672-30.72 77.824 77.824 0 0 1 32.768 0v8.704c7.68 16.384 31.744 7.68 32.256-8.704v-3.584-2.56-76.288a79.872 79.872 0 0 0 60.416-76.8zM260.096 617.472zM512 933.376a15.36 15.36 0 0 1 14.848 8.704 16.896 16.896 0 0 0-14.848-8.704z m0 0z m-14.336 8.704a15.872 15.872 0 0 1 13.824-8.192 16.896 16.896 0 0 0-15.36 7.68z m252.928-87.552A214.528 214.528 0 0 0 665.6 870.4c-33.28 10.752-66.048 24.576-98.304 38.912l-39.424 16.896-12.288 5.12h-9.216l-10.752-4.608-34.816-15.872c-32.256-13.824-64.512-27.648-97.792-38.912a240.128 240.128 0 0 0-84.992-17.92h-7.68v-55.808a16.896 16.896 0 0 0 0-5.632v-130.048a17.92 17.92 0 0 0 0-5.12v-21.504-18.944h12.288a1903.616 1903.616 0 0 1 224.256 51.2h10.24a2067.456 2067.456 0 0 1 224.256-51.2h12.288V854.016z" fill="#FD9D02" p-id="4664"></path></svg>